<svg xmlns="http://www.w3.org/2000/svg" width="39" height="39" viewBox="0 0 39 39"><defs><style>.a{fill:none;}.b{fill:#fff;}</style></defs><path class="a" d="M0,0H39V39H0Z"/><path class="b" d="M31.444,13.815a12.175,12.175,0,0,0-22.75-3.25A9.746,9.746,0,0,0,9.75,30H30.875a8.1,8.1,0,0,0,.569-16.185ZM30.875,26.75H9.75A6.5,6.5,0,0,1,9.035,13.8l1.739-.179.813-1.544a8.917,8.917,0,0,1,16.672,2.372l.487,2.438,2.486.179a4.848,4.848,0,0,1-.357,9.685Zm-9.019-13H17.144v4.875H13l6.5,6.5,6.5-6.5H21.856Z" transform="translate(0 2.5)"/></svg>