<svg xmlns="http://www.w3.org/2000/svg" width="27.396" height="27.396" viewBox="0 0 27.396 27.396"><defs><style>.a{fill:none;}.b{fill:#b6b6b6;}</style></defs><path class="a" d="M0,0H27.4V27.4H0Z"/><path class="b" d="M23.972,6.708H20.353L18.264,4.425H11.415V6.708H17.26l2.089,2.283h4.623v13.7H5.708V12.415H3.425V22.689a2.29,2.29,0,0,0,2.283,2.283H23.972a2.29,2.29,0,0,0,2.283-2.283V8.991A2.29,2.29,0,0,0,23.972,6.708ZM9.132,15.84a5.708,5.708,0,1,0,5.708-5.708A5.71,5.71,0,0,0,9.132,15.84Zm5.708-3.425a3.425,3.425,0,1,1-3.425,3.425A3.435,3.435,0,0,1,14.84,12.415ZM5.708,6.708H9.132V4.425H5.708V1H3.425V4.425H0V6.708H3.425v3.425H5.708Z" transform="translate(0 0.142)"/></svg>