<svg xmlns="http://www.w3.org/2000/svg" xmlns:xlink="http://www.w3.org/1999/xlink" width="130" height="130" viewBox="0 0 130 130">
  <defs>
    <clipPath id="clip-path">
      <rect width="130" height="130" fill="none"/>
    </clipPath>
  </defs>
  <g id="Repeat_Grid_1" data-name="Repeat Grid 1" clip-path="url(#clip-path)">
    <g id="Group_74" data-name="Group 74" transform="translate(-142 -68)">
      <g id="Ellipse_1" data-name="Ellipse 1" transform="translate(142 68)" fill="#fafafa" stroke="#707070" stroke-width="0.5">
        <circle cx="65" cy="65" r="65" stroke="none"/>
        <circle cx="65" cy="65" r="64.75" fill="none"/>
      </g>
      <g id="add_a_photo-24px" transform="translate(193.641 119.641)">
        <path id="Path_150" data-name="Path 150" d="M0,0H27.4V27.4H0Z" fill="none"/>
        <path id="Path_151" data-name="Path 151" d="M23.972,6.708H20.353L18.264,4.425H11.415V6.708H17.26l2.089,2.283h4.623v13.7H5.708V12.415H3.425V22.689a2.29,2.29,0,0,0,2.283,2.283H23.972a2.29,2.29,0,0,0,2.283-2.283V8.991A2.29,2.29,0,0,0,23.972,6.708ZM9.132,15.84a5.708,5.708,0,1,0,5.708-5.708A5.71,5.71,0,0,0,9.132,15.84Zm5.708-3.425a3.425,3.425,0,1,1-3.425,3.425A3.435,3.435,0,0,1,14.84,12.415ZM5.708,6.708H9.132V4.425H5.708V1H3.425V4.425H0V6.708H3.425v3.425H5.708Z" transform="translate(0 0.142)" fill="#b6b6b6"/>
      </g>
    </g>
  </g>
</svg>
