<svg xmlns="http://www.w3.org/2000/svg" width="28.65" height="28.65" viewBox="0 0 28.65 28.65"><defs><style>.a{fill:none;}.b{fill:#707070;}</style></defs><path class="a" d="M0,0H28.65V28.65H0Z"/><path class="b" d="M22.754,15.107a9.3,9.3,0,0,0,.084-1.17,9.3,9.3,0,0,0-.084-1.17l2.519-1.97a.6.6,0,0,0,.143-.764L23.029,5.9a.6.6,0,0,0-.525-.3.558.558,0,0,0-.2.036L19.328,6.835a8.721,8.721,0,0,0-2.017-1.17L16.857,2.5a.582.582,0,0,0-.585-.5H11.5a.582.582,0,0,0-.585.5l-.454,3.163a9.171,9.171,0,0,0-2.017,1.17L5.469,5.641a.676.676,0,0,0-.215-.036.591.591,0,0,0-.513.3l-2.387,4.13A.589.589,0,0,0,2.5,10.8l2.519,1.97a9.467,9.467,0,0,0-.084,1.17,9.467,9.467,0,0,0,.084,1.17L2.5,17.077a.6.6,0,0,0-.143.764l2.387,4.13a.6.6,0,0,0,.525.3.558.558,0,0,0,.2-.036L8.441,21.04a8.721,8.721,0,0,0,2.017,1.17l.454,3.163a.582.582,0,0,0,.585.5h4.775a.582.582,0,0,0,.585-.5l.454-3.163a9.171,9.171,0,0,0,2.017-1.17L22.3,22.234a.676.676,0,0,0,.215.036.591.591,0,0,0,.513-.3l2.387-4.13a.6.6,0,0,0-.143-.764Zm-2.364-2.041a6.378,6.378,0,0,1,.06.871c0,.251-.024.513-.06.871l-.167,1.349,1.062.836,1.289,1L21.74,19.44l-1.516-.609-1.241-.5-1.074.812a6.991,6.991,0,0,1-1.492.871l-1.265.513-.191,1.349-.239,1.612H13.049l-.227-1.612-.191-1.349-1.265-.513A6.773,6.773,0,0,1,9.9,19.166L8.812,18.33l-1.265.513-1.516.609-.836-1.444,1.289-1,1.062-.836-.167-1.349c-.036-.37-.06-.645-.06-.883s.024-.513.06-.871l.167-1.349-1.062-.836-1.289-1L6.03,8.434l1.516.609,1.241.5,1.074-.812a6.991,6.991,0,0,1,1.492-.871l1.265-.513L12.811,6l.239-1.612h1.659L14.935,6l.191,1.349,1.265.513a6.773,6.773,0,0,1,1.468.848l1.086.836,1.265-.513,1.516-.609.836,1.444-1.277,1.015-1.062.836.167,1.349Zm-6.506-3.9a4.775,4.775,0,1,0,4.775,4.775A4.774,4.774,0,0,0,13.885,9.162Zm0,7.162a2.387,2.387,0,1,1,2.387-2.387A2.394,2.394,0,0,1,13.885,16.325Z" transform="translate(0.44 0.387)"/></svg>