
<svg xmlns="http://www.w3.org/2000/svg" xmlns:xlink="http://www.w3.org/1999/xlink" width="23" height="22" viewBox="0 0 23 22"><defs><style>.a{fill:none;}.b{fill:url(#a);}</style><linearGradient id="a" x1="0.5" x2="0.5" y2="1" gradientUnits="objectBoundingBox"><stop offset="0" stop-color="#2ab2e7"/><stop offset="1" stop-color="#4fcee4"/></linearGradient></defs><g transform="translate(-0.049 -0.219)"><g transform="translate(0 0)"><rect class="a" width="23" height="22" transform="translate(0.049 0.219)"/></g><g transform="translate(0.687 1.158)"><path class="b" d="M21.706,11.382l-2.3-2.626.32-3.473-3.4-.772L14.553,1.5l-3.2,1.374L8.153,1.5l-1.779,3-3.4.762L3.3,8.747,1,11.382l2.3,2.626-.32,3.482,3.4.772,1.779,3,3.2-1.384,3.2,1.374,1.779-3,3.4-.772-.32-3.473ZM9.555,15.825,5.979,12.239l1.393-1.393,2.184,2.193,5.506-5.525,1.393,1.393Z" transform="translate(-1 -1.5)"/></g></g></svg>